<svg xmlns="http://www.w3.org/2000/svg" version="1.1" xmlns:xlink="http://www.w3.org/1999/xlink" viewBox="0 0 200 200"><rect width="200" height="200" fill="url('#gradient')"></rect><defs><linearGradient id="gradient" gradientTransform="rotate(131 0.5 0.5)"><stop offset="0%" stop-color="#8ee3eb"></stop><stop offset="100%" stop-color="#f1f8e7"></stop></linearGradient></defs><g><g fill="#000000" transform="matrix(3.059119496855346,0,0,3.059119496855346,22.085476110716286,122.63982724123781)" stroke="#ffffff" stroke-width="0"><path d="M8.41-3.78L8.41-3.78Q8.41-4.53 7.88-4.95Q7.34-5.37 6.01-5.82Q4.67-6.27 3.82-6.69L3.82-6.69Q1.05-8.05 1.05-10.42L1.05-10.42Q1.05-11.60 1.74-12.50Q2.43-13.41 3.69-13.91Q4.95-14.41 6.52-14.41L6.52-14.41Q8.06-14.41 9.27-13.87Q10.49-13.32 11.16-12.31Q11.84-11.30 11.84-10L11.84-10L8.42-10Q8.42-10.87 7.89-11.35Q7.35-11.83 6.45-11.83L6.45-11.83Q5.53-11.83 5.00-11.42Q4.46-11.02 4.46-10.39L4.46-10.39Q4.46-9.84 5.05-9.40Q5.63-8.96 7.11-8.48Q8.58-8.01 9.53-7.46L9.53-7.46Q11.84-6.13 11.84-3.80L11.84-3.80Q11.84-1.93 10.43-0.87Q9.02 0.20 6.57 0.20L6.57 0.20Q4.84 0.20 3.44-0.42Q2.04-1.04 1.33-2.12Q0.63-3.20 0.63-4.61L0.63-4.61L4.06-4.61Q4.06-3.47 4.65-2.92Q5.24-2.38 6.57-2.38L6.57-2.38Q7.42-2.38 7.92-2.75Q8.41-3.12 8.41-3.78ZM18.55 0.20L18.55 0.20Q16.12 0.20 14.62-1.25Q13.12-2.71 13.12-5.03L13.12-5.03L13.12-5.30Q13.12-6.92 13.72-8.16Q14.32-9.40 15.47-10.08Q16.62-10.76 18.20-10.76L18.20-10.76Q20.43-10.76 21.72-9.38Q23.01-8.00 23.01-5.53L23.01-5.53L23.01-4.25L16.46-4.25Q16.64-3.36 17.24-2.85Q17.83-2.34 18.78-2.34L18.78-2.34Q20.34-2.34 21.22-3.44L21.22-3.44L22.72-1.66Q22.11-0.81 20.98-0.31Q19.85 0.20 18.55 0.20ZM18.18-8.22L18.18-8.22Q16.74-8.22 16.46-6.31L16.46-6.31L19.79-6.31L19.79-6.56Q19.80-7.35 19.38-7.79Q18.96-8.22 18.18-8.22ZM23.93-4.82L23.92-5.38Q23.92-6.96 24.53-8.20Q25.15-9.43 26.30-10.10Q27.45-10.76 29.00-10.76L29.00-10.76Q31.38-10.76 32.74-9.29Q34.11-7.82 34.11-5.29L34.11-5.29L34.11-5.18Q34.11-2.71 32.74-1.25Q31.37 0.20 29.02 0.20L29.02 0.20Q26.77 0.20 25.40-1.16Q24.03-2.51 23.93-4.82L23.93-4.82ZM27.22-5.77L27.21-5.18Q27.21-3.71 27.67-3.03Q28.13-2.34 29.02-2.34L29.02-2.34Q30.78-2.34 30.82-5.05L30.82-5.05L30.82-5.38Q30.82-8.22 29.00-8.22L29.00-8.22Q27.35-8.22 27.22-5.77L27.22-5.77ZM41.95 0L41.86-1.14Q40.81 0.20 39.03 0.20L39.03 0.20Q37.29 0.20 36.40-0.82Q35.51-1.83 35.51-3.72L35.51-3.72L35.51-10.57L38.80-10.57L38.80-3.70Q38.80-2.34 40.12-2.34L40.12-2.34Q41.25-2.34 41.73-3.15L41.73-3.15L41.73-10.57L45.04-10.57L45.04 0L41.95 0ZM50.31-15L50.31 0L47.01 0L47.01-15L50.31-15Z"></path></g></g></svg>